<svg version="1.2" xmlns="http://www.w3.org/2000/svg" viewBox="0 0 210 28" width="210" height="28">
	<title>clickpostlogo-svg</title>
	<style>
		.s0 { fill: #ffffff } 
		.s1 { fill: #6aa9ae } 
		.s2 { fill: none;stroke: #6aa9ae;stroke-linecap: round;stroke-linejoin: round;stroke-width: 1.3 } 
		.s3 { fill: #e63323 } 
		.s4 { fill: #575756 } 
		.s5 { fill: #575756;stroke: #575756;stroke-width: .5 } 
	</style>
	<g id="Layer">
		<path id="Layer" class="s0" d="m20.2 7.5l2.6 11.7c-0.5 2.2-2.3 3.8-4.6 3.8h-3.3l-12.3-3v-12.5z"/>
		<path id="Layer" class="s1" d="m18.2 4.5q0.9 0 1.7 0.4 0.9 0.3 1.5 1 0.7 0.6 1 1.5 0.4 0.8 0.4 1.8v9.2q0 0.1 0 0.2 0 0.1 0 0.2 0 0.1-0.1 0.2 0 0.1 0 0.2l-2.9-2.3v-7.6q0-0.3-0.1-0.5-0.1-0.3-0.3-0.5-0.2-0.2-0.4-0.3-0.3-0.1-0.6-0.1h-14.1q-0.3 0-0.5 0.1-0.3 0.1-0.5 0.3-0.2 0.2-0.3 0.5-0.1 0.2-0.1 0.5v8.8q0 0.3 0.1 0.6 0.1 0.2 0.3 0.4 0.2 0.2 0.5 0.3 0.2 0.1 0.5 0.1h10.3l0.3 3.5h-10.3q-0.9 0-1.8-0.4-0.8-0.3-1.5-1-0.6-0.6-1-1.5-0.3-0.9-0.3-1.8v-9.1q0-1 0.4-1.8 0.3-0.9 1-1.5 0.6-0.7 1.5-1 0.8-0.4 1.7-0.4z"/>
		<path id="Layer" class="s2" d="m17.9 9.7l-6.5 4-6.6-4"/>
		<path id="Layer" class="s3" d="m25.3 23h-5.5l-3.3 4.6-1.1-12.8z"/>
	</g>
	<g id="Layer">
		<path id="Layer" class="s4" d="m54.8 20.1c0.5 0 0.7-0.3 0.7-0.8v-1.5h3.3v1.5c0 2.5-1.5 3.9-3.9 3.9h-6.7c-2.2 0-3.9-1.4-3.9-3.9v-11.1c0-2.5 1.7-3.9 3.9-3.9h6.7c2.4 0 3.9 1.4 3.9 3.9v1.5h-3.3v-1.6q0-0.7-0.7-0.7h-7.1v12.7z"/>
		<path id="Layer" class="s4" d="m65.1 4.3h3.2v15.8h10.8v3.1h-14z"/>
		<path id="Layer" class="s4" d="m84.9 4.3h3.2v18.8h-3.2z"/>
		<path id="Layer" class="s4" d="m106 20.1c0.5 0 0.7-0.3 0.7-0.8v-1.5h3.3v1.5c0 2.5-1.6 3.9-3.9 3.9h-6.7c-2.2 0-4-1.4-4-3.9v-11.1c0-2.5 1.8-3.9 4-3.9h6.7c2.3 0 3.9 1.4 3.9 3.9v1.5h-3.3v-1.6q0-0.7-0.7-0.7h-7.1v12.7z"/>
		<path id="Layer" class="s5" d="m116.3 4.3h3.2v7.7l6.4-7.7h3.9l-7 8 7.9 10.8h-3.9l-7.3-10.1v10.2h-3.2z"/>
	</g>
	<g id="Layer">
		<path id="Layer" fill-rule="evenodd" class="s0" d="m149.7 8.2v4c0 2.6-1.6 3.8-3.9 3.8h-7.1v7.1h-3.2v-18.8h10.3c2.3 0 3.9 1.4 3.9 3.9zm-11 4.8h7.5v-5.6h-7.5z"/>
		<path id="Layer" fill-rule="evenodd" class="s0" d="m170.5 8.2v11.1c0 2.5-1.6 3.9-4 3.9h-7.2c-2.2 0-4-1.4-4-3.9v-11.1c0-2.5 1.8-3.9 4-3.9h7.2c2.4 0 4 1.4 4 3.9zm-11.7 10.9c0 0.5 0.4 1 1 1h6.3c0.5 0 1-0.5 1-1v-10.7c0-0.6-0.5-1-1-1h-6.3c-0.6 0-1 0.4-1 1z"/>
		<path id="Layer" class="s0" d="m191.4 8.2v1.5h-3.4v-1.6c0-0.5-0.2-0.7-0.6-0.7h-6.7c-0.5 0-0.6 0.3-0.6 0.7v4.1h7.3c2.4 0 4 1.3 4 3.8v3.2c0 2.6-1.7 3.9-4 3.9h-6.6c-2.3 0-3.8-1.3-3.8-3.9v-1.4h3.3v1.4c0 0.5 0.2 0.8 0.6 0.8h6.4c0.5 0 0.7-0.3 0.7-0.8v-4h-7.4c-2.2 0-4-1.3-4-3.8v-3.3c0-2.5 1.8-3.8 4-3.8h6.9c2.4 0 3.9 1.4 3.9 3.9z"/>
		<path id="Layer" class="s0" d="m201.4 7.4h-5.2v-3.1h13.5v3.1h-5.1v15.8h-3.2z"/>
	</g>
</svg>