<svg version="1.2" xmlns="http://www.w3.org/2000/svg" viewBox="0 0 168 38" width="168" height="38">
	<title>ocslogo-svg</title>
	<style>
		.s0 { fill: #ffffff } 
	</style>
	<path id="Layer" fill-rule="evenodd" class="s0" d="m31.8 5.4c3.4 3.5 5.4 8.3 5.4 13.2 0 4.9-2 9.7-5.4 13.2-3.5 3.4-8.3 5.4-13.2 5.4-4.9 0-9.7-2-13.2-5.4-3.4-3.5-5.4-8.3-5.4-13.2 0-4.9 2-9.7 5.4-13.2 3.5-3.4 8.3-5.4 13.2-5.4 4.9 0 9.7 2 13.2 5.4zm-2.4 24c2.9-2.9 4.5-6.7 4.5-10.8 0-4.1-1.6-7.9-4.5-10.8-2.9-2.9-6.7-4.5-10.8-4.5-4.1 0-7.9 1.6-10.8 4.5-2.9 2.9-4.5 6.7-4.5 10.8 0 4.1 1.6 7.9 4.5 10.8 2.9 2.9 6.7 4.5 10.8 4.5 4.1 0 7.9-1.6 10.8-4.5zm-3.3-7.4c0.9 0.9 1.4 2.1 1.4 3.4 0 1.3-0.5 2.5-1.4 3.4-0.9 0.9-2.1 1.4-3.4 1.4-2.1 0-2.1-3.1 0-3.1 0.9 0 1.7-0.8 1.7-1.7 0-0.9-0.8-1.7-1.7-1.7-2.1 0-2.1-3.1 0-3.1 1.3 0 2.5 0.5 3.4 1.4zm-7.6 8.2c-3.1 0-6-1.2-8.2-3.4-2.2-2.2-3.4-5.1-3.4-8.2 0-3.1 1.2-6 3.4-8.2 2.2-2.2 5.1-3.4 8.2-3.4 2.2 0 2.2 3.3 0 3.3-2.2 0-4.3 0.9-5.9 2.4-1.5 1.6-2.4 3.7-2.4 5.9 0 2.2 0.9 4.3 2.4 5.9 1.6 1.5 3.7 2.4 5.9 2.4 2.2 0 2.2 3.3 0 3.3zm-1.7-11.3c0 0.9 0.8 1.7 1.7 1.7 2.1 0 2.1 3.1 0 3.1-1.3 0-2.5-0.5-3.4-1.4-0.9-0.9-1.4-2.1-1.4-3.4 0-1.3 0.5-2.5 1.4-3.4 0.9-0.9 2.1-1.4 3.4-1.4 2.1 0 2.1 3.1 0 3.1-0.9 0-1.7 0.7-1.7 1.7zm38.6-14.6v7.7c0 1.8-1.2 2.7-2.8 2.7h-5.1c-1.6 0-2.8-0.9-2.8-2.7v-7.7c0-1.8 1.3-2.7 2.8-2.7h5.1c1.7 0 2.8 1 2.8 2.7zm-2.4 0c0-0.3-0.1-0.5-0.4-0.5h-5c-0.3 0-0.4 0.2-0.4 0.5v7.8c0 0.3 0.1 0.5 0.4 0.5h5c0.3 0 0.4-0.2 0.4-0.5zm17.6 20.9v7.7c0 1.8-1.2 2.7-2.8 2.7h-5.1c-1.5 0-2.8-0.9-2.8-2.7v-7.7c0-1.8 1.3-2.7 2.8-2.7h5.1c1.6 0 2.8 0.9 2.8 2.7zm-2.4-0.1c0-0.3-0.1-0.5-0.4-0.5h-5c-0.3 0-0.4 0.2-0.4 0.5v7.8c0 0.3 0.1 0.5 0.4 0.5h5c0.3 0 0.4-0.2 0.4-0.5zm-13 0.1v1.1h-2.3v-1.1c0-0.3-0.1-0.5-0.4-0.5h-4.8c-0.3 0-0.4 0.2-0.4 0.5v2.9h5.1c1.7 0 2.8 0.9 2.8 2.7v2.2c0 1.8-1.2 2.7-2.8 2.7h-4.6c-1.6 0-2.7-0.9-2.7-2.7v-1h2.3v1c0 0.3 0.1 0.5 0.4 0.5h4.5c0.2 0 0.4-0.2 0.4-0.5v-2.8h-5.1c-1.6 0-2.8-0.9-2.8-2.7v-2.3c0-1.8 1.3-2.7 2.8-2.7h4.8c1.6 0 2.7 0.9 2.8 2.7zm13.2-23.6h2.3v13.1h-2.3l-6.1-9.3v9.3h-2.3v-13.1h2.3l6.1 9.3zm50.9 11v2.1h-9.8v-13.1h2.3v11zm18.2 12.6v7.7c0 1.8-1.2 2.7-2.8 2.7h-5.1c-1.6 0-2.8-0.9-2.8-2.7v-7.7c0-1.8 1.3-2.7 2.8-2.7h5.1c1.6 0 2.7 0.9 2.8 2.7zm-2.4-0.1c0-0.3-0.1-0.5-0.4-0.5h-5c-0.3 0-0.4 0.2-0.4 0.5v7.8c0 0.3 0.1 0.5 0.4 0.5h5c0.3 0 0.4-0.2 0.4-0.5zm-11.6-23.4h2.3v13.1h-2.3zm-39.1 13.1h-8.9v-13.1h8.8v2.1h-6.5v3.1h5.1v2.1h-5.1v3.6h6.6zm56.6-10.5v0.9h-2.3v-1.1c0-0.3-0.1-0.5-0.4-0.5h-5v8.9h5c0.3 0 0.4-0.2 0.4-0.5v-1h2.3v1c0 1.8-1.1 2.7-2.7 2.7h-4.7c-1.6 0-2.8-0.9-2.8-2.7v-7.7c0-1.8 1.3-2.7 2.8-2.7h4.7c1.7 0 2.8 1 2.7 2.7zm24.4 22v-1.1c0-0.3-0.1-0.5-0.4-0.5h-4.8c-0.3 0-0.4 0.2-0.4 0.5v2.9h5.2c1.6 0 2.8 0.9 2.8 2.7v2.2c0 1.8-1.2 2.7-2.8 2.7h-4.6c-1.6 0-2.7-0.9-2.7-2.7v-1h2.3v1c0 0.3 0.1 0.5 0.4 0.5h4.5c0.2 0 0.4-0.2 0.4-0.5v-2.8h-5.1c-1.6 0-2.8-0.9-2.8-2.7v-2.3c0-1.8 1.3-2.7 2.8-2.7h4.8c1.6 0 2.7 0.9 2.7 2.7v1.1zm-15.4-19.1l5.6 7.5h-2.8l-5.1-7.1v7.1h-2.3v-13.1h2.3v5.3l4.5-5.3h2.7zm0.6 15.3h2.3v13.1h-2.3l-6.1-9.3v9.3h-2.3v-13.1h2.3l6.1 9.3zm-52.5 10.4v-10.5h2.4v10.4c0 1.8-1.2 2.7-2.8 2.7h-5.1c-1.6 0-2.8-0.9-2.8-2.7v-10.4h2.4v10.5c0 0.3 0.1 0.5 0.4 0.5h5c0.3 0 0.4-0.2 0.4-0.5zm20.8-10.4h2.3v13.1h-2.3zm-40.8 0v11h7.5v2.1h-9.8v-13.1zm27.1-10.5c0 1.8-1.1 2.7-2.7 2.7h-4.7c-1.6 0-2.8-0.9-2.8-2.7v-7.7c0-1.8 1.3-2.7 2.8-2.7h4.6c1.6 0 2.7 0.9 2.7 2.7v1h-2.3v-1.1c0-0.3-0.1-0.5-0.4-0.5h-5v8.9h5c0.3 0 0.4-0.2 0.4-0.5v-1h2.4zm-0.5 10.5h9.5v2.1h-3.6v11h-2.3v-11h-3.6z"/>
</svg>