<svg xmlns="http://www.w3.org/2000/svg" width="390.5" height="51.4" viewBox="0 0 390.5 51.4">
  <g>
    <path fill="#fff" d="M4.8 14v23.2l22.9 5.6h6.2c4.2 0 7.7-3 8.5-7.1L37.7 14z"/>
    <path fill="#6aa9ae" d="M8.6 8.4A8.6 8.6 0 000 17v17a8.6 8.6 0 008.6 8.7h19.2l-.6-6.4H8a2.6 2.6 0 01-2.6-2.6V17.3A2.6 2.6 0 018 14.7h26.3a2.6 2.6 0 012.6 2.6v14l5.4 4.4a8.6 8.6 0 00.1-1.6V17a8.6 8.6 0 00-8.6-8.6z"/>
    <path fill="none" stroke="#6aa9ae" stroke-linecap="round" stroke-linejoin="round" stroke-width="2.5" d="M9 18l12.2 7.4L33.4 18"/>
    <path fill="#e63323" d="M28.7 27.4l2 23.9 6.1-8.5h10.3z"/>
  </g>
  <g fill="#575756">
    <path d="M102.1 37.3c.8 0 1.2-.6 1.2-1.5v-2.7h6.2v2.7c0 4.7-2.9 7.2-7.2 7.2H89.8c-4.1 0-7.4-2.5-7.4-7.2V15.2c0-4.7 3.3-7.2 7.4-7.2h12.5c4.3 0 7.2 2.5 7.2 7.2v2.9h-6.2v-3c0-.9-.4-1.4-1.2-1.4H88.8v23.6z"/>
    <path d="M121.2 8h6v29.3h20.1V43h-26.1z"/>
    <path d="M158.1 8h6v34.9h-6z"/>
    <path d="M197.4 37.3c.8 0 1.2-.6 1.2-1.5v-2.7h6.2v2.7c0 4.7-2.9 7.2-7.2 7.2h-12.5c-4.1 0-7.4-2.5-7.4-7.2V15.2c0-4.7 3.3-7.2 7.4-7.2h12.5c4.3 0 7.2 2.5 7.2 7.2v2.9h-6.2v-3c0-.9-.4-1.4-1.2-1.4h-13.3v23.6z"/>
    <path d="M216.5 8h6v14.2l12-14.2h7.1l-13 14.9 14.8 20H236l-13.5-18.8V43h-6z"/>
  </g>
  <g fill="#6aa9ae">
    <path d="M278.8 15.2v7.5c0 4.7-3.1 7.1-7.4 7.1h-13.1v13.1h-6V8h19.1c4.3 0 7.4 2.5 7.4 7.2zm-6.5 9V13.7h-14.1v10.5z"/>
    <path d="M317.5 15.2v20.6c0 4.7-3 7.2-7.4 7.2h-13.5c-4.1 0-7.4-2.5-7.4-7.2V15.2c0-4.7 3.3-7.2 7.4-7.2h13.5c4.3 0 7.4 2.5 7.4 7.2zm-6.4 20.6V15.1c0-.9-.4-1.4-1.2-1.4h-13.2c-.8 0-1.1.6-1.1 1.4v20.7c0 .9.4 1.5 1.1 1.5h13.2c.8 0 1.2-.6 1.2-1.5z"/>
    <path d="M356.3 15.2v2.9h-6.2v-3c0-.9-.4-1.4-1.1-1.4h-12.6c-.8 0-1.1.6-1.1 1.4v7.6h13.6c4.4 0 7.4 2.4 7.4 7.1v5.9c0 4.7-3.1 7.2-7.4 7.2h-12.2c-4.4 0-7.2-2.5-7.2-7.2V33h6.2v2.7c0 .9.4 1.5 1.2 1.5h11.9c.8 0 1.2-.6 1.2-1.5v-7.4h-13.7c-4.1 0-7.4-2.5-7.4-7.2v-6c0-4.7 3.3-7.2 7.4-7.2h12.8c4.4.1 7.2 2.6 7.2 7.3z"/>
    <path d="M374.9 13.7h-9.6V8h25.2v5.7h-9.6V43h-6z"/>
  </g>
</svg>
