<svg width="24" height="24" xmlns="http://www.w3.org/2000/svg">
  <path d="M3.08 2.96C1.057 3.604 0 5.355 0 7.714v9.241c0 2.839 1.702 5.109 4.946 5.109h14.108c3.244 0 4.946-2.27 4.946-5.108v-1.127a2.576 2.576 0 0 1-1.702.64 2.098 2.098 0 0 1-1.379-.591v1.89c0 .486-.405.729-.973.729H4.054c-.568 0-.973-.243-.973-.73V6.983Z" fill="#6aa9ae" style="stroke-width:.8"/>
  <path d="M22.44 9.52v-5.2" stroke="#e63323" stroke-width="3.04" stroke-linecap="round"/>
  <path d="M22.44 14.96c.72 0 1.36-.56 1.36-1.36s-.56-1.36-1.36-1.36c-.72 0-1.36.56-1.36 1.36s.64 1.36 1.36 1.36" fill="#e63323" stroke="#e63323" stroke-width=".4"/>
  <path d="M18.56 15.92H5.44m13.12-2.4H5.44m13.12-2.4H5.44" stroke="#6aa9ae" stroke-linecap="round" stroke-width="1.2"/>
</svg>
