<svg xml:space="preserve" width="24" height="24" xmlns="http://www.w3.org/2000/svg">
  <path d="M1.35 11.923h7.73m-7.73 4.56h7.73m-7.73 4.484h7.73" stroke="#6aa9ae" stroke-width="2.699" stroke-linecap="round"/>
  <path d="M15.033 22.59c1.314 0 2.319-1.004 2.319-2.318s-1.005-2.32-2.32-2.32c-1.314 0-2.319 1.006-2.319 2.32 0 1.391 1.005 2.319 2.32 2.319m-1.856-6.494h3.634v-2.01h2.783c2.473 0 4.406-1.469 4.406-4.329v-4.02c0-2.86-1.933-4.329-4.406-4.329h-7.576c-2.629 0-4.33 1.469-4.33 4.33v2.086H11.4V5.661c0-.541.232-.85.696-.85h8.04v5.875h-6.958z" fill="#e63323" style="stroke-width:.773059"/>
</svg>
