<svg version="1.2" xmlns="http://www.w3.org/2000/svg" viewBox="0 0 24 24" width="24" height="24">
	<title>movePageDown-svg</title>
	<style>
		.s0 { fill: #000000;stroke: #ffffff;stroke-linecap: round;stroke-width: 3 } 
		.s1 { fill: #ffffff } 
	</style>
	<path id="Layer" class="s0" d="m11.8 22.5l-3.3-3.3m3.3 3.3l3.3-3.3"/>
	<path id="Layer" fill-rule="evenodd" class="s1" d="m22.3 12.3c0 2.5-1.4 4.3-4.3 4.3h-12.1c-2.8 0-4.2-1.8-4.2-4.3v-8c0-2.4 1.4-4.3 4.2-4.3h12.1c2.9 0 4.3 1.9 4.3 4.3zm-17.9 0.3c0 0.4 0.7 1 1.2 1h12.8c0.5 0 1.3-0.6 1.3-1v-8.4c0-0.5-0.8-1.1-1.2-1.1h-12.9c-0.5 0-1.2 0.6-1.2 1.1z"/>
</svg>