<svg width="24" height="24" xmlns="http://www.w3.org/2000/svg">
  <path d="M11.8 1.484 8.514 4.769M11.8 1.484l3.285 3.285" stroke="#e63323" stroke-width="2.967" stroke-linecap="round"/>
  <path d="M4.428 11.5v8.494c0 .48.72 1.041 1.202 1.041h12.82c.481 0 1.202-.56 1.202-1.041V11.5c0-.481-.72-1.042-1.202-1.042H5.63c-.561 0-1.202.561-1.202 1.042m17.869.24v7.933c0 2.404-1.443 4.327-4.247 4.327H5.95c-2.804 0-4.247-1.923-4.247-4.327V11.74c0-2.564 1.443-4.327 4.247-4.327h12.1c2.804 0 4.247 1.763 4.247 4.327" fill="#6aa9ae"/>
</svg>