<svg width="24" height="24" xmlns="http://www.w3.org/2000/svg">
  <path d="m11.8 22.516-3.286-3.285m3.286 3.285 3.285-3.285" stroke="#e63323" stroke-width="2.967" stroke-linecap="round"/>
  <path d="M4.428 12.5c0 .481.72 1.042 1.202 1.042h12.82c.481 0 1.202-.561 1.202-1.042V4.087c0-.481-.72-1.042-1.202-1.042H5.63c-.561 0-1.202.56-1.202 1.042V12.5m17.869-.24c0 2.564-1.443 4.327-4.247 4.327H5.95c-2.804 0-4.247-1.763-4.247-4.327V4.327C1.703 1.923 3.146 0 5.95 0h12.1c2.804 0 4.247 1.923 4.247 4.327v7.933" fill="#6aa9ae"/>
</svg>