<svg width="24" height="24" xmlns="http://www.w3.org/2000/svg">
  <path d="M3.45 2C1.18 2 0 3.57 0 5.53v6.44c0 2.11 1.18 3.52 3.45 3.52h.63v-2.43h-.95c-.39-.07-.93-.47-.93-.86V5.3c0-.39.54-.86 1.02-.86h10.5c.4 0 .94.47.94.86v1.02h2.12v-.79c0-1.96-1.17-3.52-3.45-3.52z" fill="#6aa9ae"/>
  <path d="M8.47 7.34c-2.28 0-3.45 1.57-3.45 3.52v6.44c0 2.11 1.17 3.52 3.45 3.52h6.64a6.22 6.22 0 0 1-.29-1.17 5.9 5.9 0 0 1-.02-1.26H8.15c-.46-.07-1.01-.47-1.01-.86v-6.9c0-.4.55-.86 1.01-.86h1.5V7.34Zm4.78 0v2.43h5.42c.39 0 .93.47.93.86v3.34a6.64 6.64 0 0 1 .8.04 3.62 3.62 0 0 1 1.33.37v-3.52c0-1.95-1.18-3.52-3.45-3.52z" fill="#6aa9ae"/>
  <path stroke="#e63323" stroke-width="1.7" stroke-linecap="round" d="m11.53 13.7 2.12-2.13m-2.2 2.12-2.12-2.12"/>
  <path stroke="#e63323" stroke-width="1.7" stroke-linecap="round" d="M11.53 13.22V7.65"/>
  <path d="m20.92 18.97 1.05 1.07c.1.14.18.3.18.48a.75.75 0 0 1-.75.75.67.67 0 0 1-.51-.18l-1.05-1.02-1.02 1a.75.75 0 0 1-.54.2.75.75 0 0 1-.75-.75c0-.18.08-.34.2-.48l1.06-1.07s-.96-.94-1.09-1.12a.73.73 0 0 1-.17-.46.75.75 0 0 1 .75-.75c.25 0 .44.1.57.27l.97.96s.88-.86.98-.99a.76.76 0 0 1 .6-.27.75.75 0 0 1 .75.75.73.73 0 0 1-.16.46zm3.08-.03a4.14 4.14 0 0 0-4.16-4.15 4.16 4.16 0 0 0-4.15 4.15 4.17 4.17 0 0 0 4.15 4.16A4.16 4.16 0 0 0 24 18.94" fill="#e63323"/>
</svg>
