<svg xmlns="http://www.w3.org/2000/svg" viewBox="0 0 167.8 37.2">
  <path fill="#58585a" d="M22.7 20.6c-2.1 0-2.1 3.1 0 3.1.9 0 1.7.8 1.7 1.7 0 .9-.8 1.7-1.7 1.7-2.1 0-2.1 3.1 0 3.1a4.8 4.8 0 000-9.6M18.6 0a18.6 18.6 0 100 37.2 18.6 18.6 0 100-37.2m0 33.9a15.3 15.3 0 110-30.6 15.3 15.3 0 010 30.6m-.1-7a8.3 8.3 0 110-16.6c2.2 0 2.2-3.3 0-3.3a11.6 11.6 0 000 23.2c2.2 0 2.2-3.3 0-3.3m0-9.7c2.1 0 2.1-3.1 0-3.1a4.8 4.8 0 000 9.6c2.1 0 2.1-3.1 0-3.1-.9 0-1.7-.8-1.7-1.7 0-1 .8-1.7 1.7-1.7M52.6 1.6h-5.1c-1.5 0-2.8.9-2.8 2.7V12c0 1.8 1.2 2.7 2.8 2.7h5.1c1.6 0 2.8-.9 2.8-2.7V4.3c0-1.7-1.1-2.7-2.8-2.7m.4 10.5c0 .3-.1.5-.4.5h-5c-.3 0-.4-.2-.4-.5V4.3c0-.3.1-.5.4-.5h5c.3 0 .4.2.4.5zm14.8 10.4h-5.1c-1.5 0-2.8.9-2.8 2.7v7.7c0 1.8 1.3 2.7 2.8 2.7h5.1c1.6 0 2.8-.9 2.8-2.7v-7.7c0-1.8-1.2-2.7-2.8-2.7m.4 10.4c0 .3-.1.5-.4.5h-5c-.3 0-.4-.2-.4-.5v-7.8c0-.3.1-.5.4-.5h5c.3 0 .4.2.4.5zM52.4 22.5h-4.8c-1.5 0-2.8.9-2.8 2.7v2.3c0 1.8 1.2 2.7 2.8 2.7h5.1V33c0 .3-.2.5-.4.5h-4.5c-.3 0-.4-.2-.4-.5v-1h-2.3v1c0 1.8 1.1 2.7 2.7 2.7h4.6c1.6 0 2.8-.9 2.8-2.7v-2.2c0-1.8-1.1-2.7-2.8-2.7h-5.1v-2.9c0-.3.1-.5.4-.5h4.8c.3 0 .4.2.4.5v1.1h2.3v-1.1c-.1-1.8-1.2-2.7-2.8-2.7m16-11.6l-6.1-9.3H60v13.1h2.3V5.4l6.1 9.3h2.3V1.6h-2.3zm51 1.7h-7.6v-11h-2.3v13.1h9.8v-2.1zm15.3 9.9h-5.1c-1.5 0-2.8.9-2.8 2.7v7.7c0 1.8 1.2 2.7 2.8 2.7h5.1c1.6 0 2.8-.9 2.8-2.7v-7.7c-.1-1.8-1.2-2.7-2.8-2.7m.4 10.4c0 .3-.1.5-.4.5h-5c-.3 0-.4-.2-.4-.5v-7.8c0-.3.1-.5.4-.5h5c.3 0 .4.2.4.5zm-11.6-18.1h2.3V1.7h-2.3zm-39.1-2.2h-6.6V9h5.1V6.9h-5.1V3.8h6.5V1.7h-8.8v13.1h8.9zm53.9-11h-4.7c-1.5 0-2.8.9-2.8 2.7V12c0 1.8 1.2 2.7 2.8 2.7h4.7c1.6 0 2.7-.9 2.7-2.7v-1h-2.3v1c0 .3-.1.5-.4.5h-5V3.6h5c.3 0 .4.2.4.5v1.1h2.3v-.9c.1-1.7-1-2.7-2.7-2.7m29.4 24.7v-1.1c0-1.8-1.1-2.7-2.7-2.7h-4.8c-1.5 0-2.8.9-2.8 2.7v2.3c0 1.8 1.2 2.7 2.8 2.7h5.1V33c0 .3-.2.5-.4.5h-4.5c-.3 0-.4-.2-.4-.5v-1h-2.3v1c0 1.8 1.1 2.7 2.7 2.7h4.6c1.6 0 2.8-.9 2.8-2.7v-2.2c0-1.8-1.2-2.7-2.8-2.7h-5.2v-2.9c0-.3.1-.5.4-.5h4.8c.3 0 .4.2.4.5v1.1zM154.9 1.6h-2.7l-4.5 5.3V1.6h-2.3v13.1h2.3V7.6l5.1 7.1h2.8L150 7.2zm-4.3 30.2l-6.1-9.3h-2.3v13.1h2.3v-9.3l6.1 9.3h2.3V22.5h-2.3zM98 32.9c0 .3-.1.5-.4.5h-5c-.3 0-.4-.2-.4-.5V22.4h-2.4v10.4c0 1.8 1.2 2.7 2.8 2.7h5.1c1.6 0 2.8-.9 2.8-2.7V22.4h-2.4v10.5zm20.9 2.7h2.3V22.5h-2.3zM78 22.5h-2.2v13.1h9.8v-2.1h-7.5v-11zm27.2-11.4h-2.4v1c0 .3-.1.5-.4.5h-5V3.7h5c.3 0 .4.2.4.5v1.1h2.3v-1c0-1.8-1.1-2.7-2.7-2.7h-4.6c-1.5 0-2.8.9-2.8 2.7V12c0 1.8 1.2 2.7 2.8 2.7h4.7c1.6 0 2.7-.9 2.7-2.7zm-.5 13.5h3.6v11h2.3v-11h3.6v-2.1h-9.5z"/>
</svg>