<svg width="24" height="24" xmlns="http://www.w3.org/2000/svg">
  <path d="M3.953 15.203c-.932 0-1.71.778-1.71 1.71v4.743c0 .933.778 1.71 1.71 1.71h16.171c.933 0 1.71-.777 1.71-1.71v-4.742c0-.933-.777-1.71-1.71-1.71z" stroke="#6aa9ae" stroke-width="1.267" fill="none"/>
  <path stroke="#6aa9ae" stroke-width="1.267" stroke-linecap="round" d="M2.165 2.686h19.67m-19.67 7.23h19.67"/>
  <path stroke="#e63323" stroke-width="2.263" stroke-linecap="round" d="M4.964 1.132v3.11m0 4.12v3.11m.389 6.22V20.8m3.187-3.11v3.11m3.188-3.11v3.11m3.42-3.11v3.11m3.421-3.11v3.11M8.152 1.13v3.11m4.742 4.12v3.11M14.06 1.13v3.11m1.866 4.12v3.11m2.799-10.34v3.11m0 4.12v3.11"/>
</svg>
