<svg width="24" height="24" xmlns="http://www.w3.org/2000/svg">
  <path d="M10.018 18.057H3.262c-.389 0-.777-.543-.777-1.01V6.875c0-.388.466-.931.777-.931h6.756c.388 0 .854.543.854.931v10.252c-.077.388-.543.931-.854.931M9.785 3.846h-6.29C1.553 3.846 0 5.01 0 7.186v9.629c0 2.174 1.553 3.34 3.495 3.34h6.29c2.02 0 3.417-1.166 3.417-3.34v-9.63c0-2.174-1.398-3.34-3.417-3.34" fill="#6aa9ae"/>
  <path d="M4.116 12h4.97" stroke="#6aa9ae" stroke-width=".929" stroke-linecap="round"/>
  <path d="M4.116 10.291h4.97" stroke="#e63323" stroke-width=".929" stroke-linecap="round"/>
  <path d="M4.116 8.505h4.97m-4.97 5.126h4.97m-4.97 1.708h4.97" stroke="#6aa9ae" stroke-width=".929" stroke-linecap="round"/>
  <path d="M20.813 18.057h-6.757c-.388 0-.776-.543-.776-1.01V6.875c0-.388.466-.931.776-.931h6.757c.388 0 .854.543.854.931v10.252c0 .388-.466.931-.854.931M20.58 3.846h-6.29c-1.942 0-3.495 1.165-3.495 3.34v9.629c0 2.174 1.553 3.34 3.494 3.34h6.29c2.02 0 3.418-1.166 3.418-3.34v-9.63c.078-2.174-1.32-3.34-3.417-3.34" fill="#6aa9ae"/>
  <path d="M14.988 8.505h4.893m-4.893 1.786h4.893M14.988 12h4.893" stroke="#6aa9ae" stroke-width=".929" stroke-linecap="round"/>
  <path d="M14.988 13.709h3.806" stroke="#e63323" stroke-width=".929" stroke-linecap="round"/>
</svg>
