<svg width="24" height="24" xmlns="http://www.w3.org/2000/svg">
  <path d="M0 13.936v2.954C0 19.73 1.702 22 4.946 22h14.108C22.298 22 24 19.73 24 16.892v-1.126a2.576 2.576 0 0 1-1.703.64 2.098 2.098 0 0 1-1.379-.592v1.89c0 .486-.405.729-.972.729H4.054c-.568 0-.972-.243-.972-.73v-3.767Z" fill="#6aa9ae"/>
  <path d="M22.44 9.456v-5.2" stroke="#e63323" stroke-width="3.04" stroke-linecap="round"/>
  <path d="M22.44 14.896c.72 0 1.36-.56 1.36-1.36s-.56-1.36-1.36-1.36c-.72 0-1.36.56-1.36 1.36s.64 1.36 1.36 1.36" stroke="#e63323" stroke-width=".4" fill="#e63323"/>
  <path d="M12 15.536v-8.4M9.171 9.965 12 7.136m2.829 2.829L12 7.136" stroke="#e63323" stroke-width="2.4" stroke-linecap="round"/>
</svg>

