<svg width="24" height="24" xmlns="http://www.w3.org/2000/svg">
  <path d="M21.685 16.396s.077-.077.077-.231V7.83c0-2.546-1.543-4.63-4.476-4.63H4.476C1.543 3.2 0 5.284 0 7.83v8.412c0 2.7 1.543 4.553 4.476 4.553h8.566l.926-1.775-.772-1.466H4.09c-.54 0-1.312-.618-1.312-1.08V7.521c0-.463.695-1.08 1.312-1.08h13.582c.54 0 1.235.617 1.235 1.08v7.794z" fill="#6aa9ae"/>
  <path d="m15.434 18.943-2.315 4.476L24 18.789l-11.035-4.554Z" fill="#e63323"/>
  <path d="m4.785 8.062 6.096 3.704m6.174-3.704-6.174 3.704" stroke="#6aa9ae" stroke-width="1.25" stroke-linecap="round"/>
</svg>
