<svg version="1.2" xmlns="http://www.w3.org/2000/svg" viewBox="0 0 24 24" width="24" height="24">
	<title>send-svg</title>
	<style>
		.s0 { fill: #ffffff } 
		.s1 { fill: #000000;stroke: #ffffff;stroke-linecap: round;stroke-width: 1.3 } 
	</style>
	<path id="Layer" class="s0" d="m18.9 15.3v-7.8c0-0.4-0.7-1.1-1.2-1.1h-13.6c-0.6 0-1.3 0.7-1.3 1.1v9c0 0.4 0.8 1.1 1.3 1.1h9.1l0.8 1.4-1 1.8h-8.5c-3 0-4.5-1.9-4.5-4.6v-8.4c0-2.5 1.5-4.6 4.5-4.6h12.8c2.9 0 4.5 2.1 4.5 4.6v8.4c0 0.1-0.1 0.2-0.1 0.2z"/>
	<path id="Layer" class="s0" d="m13 14.2l11 4.6-10.9 4.6 2.3-4.5z"/>
	<path id="Layer" class="s1" d="m4.8 8.1l6.1 3.7m6.2-3.7l-6.2 3.7"/>
</svg>