<svg width="24" height="24" xmlns="http://www.w3.org/2000/svg">
  <path d="M22.077 17.962s.077-.077.077-.154v-6.923c0-2.077-1.23-3.847-3.692-3.847H7.923c-2.461 0-3.692 1.693-3.692 3.847v6.923c0 2.23 1.23 3.769 3.692 3.769H15l.77-1.462-.616-1.23H7.538c-.461 0-1.076-.539-1.076-.923v-7.385c0-.385.615-.923 1.076-.923H18.77c.462 0 1.077.538 1.077.923v6.461z" fill="#6aa9ae"/>
  <path d="M17.923 5.962c-.077-1.693-1.23-3.462-3.692-3.462H3.692C1.231 2.5 0 4.192 0 6.346v6.923c0 2.231.923 3.693 3 3.846V14.27c-.462 0-.692-.384-.692-.769V6.038c0-.384.538-.846 1-.846h11.23c.924 0 1.077.77 1.077.77z" fill="#6aa9ae"/>
  <path d="M16.923 20.115 15 23.808l9-3.846-9.077-3.77z" fill="#e63323"/>
  <path d="m8.077 11.115 5.077 3.077m5.077-3.077-5.077 3.077" stroke="#6aa9ae" stroke-width="1.033" stroke-linecap="round"/>
</svg>
