<svg version="1.2" xmlns="http://www.w3.org/2000/svg" viewBox="0 0 24 24" width="24" height="24">
	<title>split-svg</title>
	<style>
		.s0 { fill: #ffffff } 
		.s1 { fill: #000000;stroke: #ffffff;stroke-linecap: round;stroke-width: 1.4 } 
		.s2 { fill: #000000;stroke: #ffffff;stroke-linecap: round;stroke-width: 2 } 
	</style>
	<path id="Layer" fill-rule="evenodd" class="s0" d="m19 23.7h-14.1c-3.2 0-4.9-2.1-4.9-5.1v-9.2c0-2.9 1.7-5.1 4.9-5.1h14.2c3.2 0 4.9 2.2 4.9 5.1v9.2c0 3-1.7 5-5 5.1zm-14.5-3.6h15c0.6 0 1.4-0.7 1.4-1.2v-9.9c0-0.6-0.8-1.2-1.4-1.2h-15c-0.6 0-1.4 0.7-1.4 1.2v9.9c0 0.5 0.8 1.2 1.4 1.2z"/>
	<path id="Layer" class="s1" d="m5.1 10.1h13.6m-13.6 2.7h13.6m-13.6 2.5h13.6m-13.6 2.4h9.4"/>
	<path id="Layer" class="s2" d="m1 1.3h3m9.7 0h3m-9.4 0h3m9.7 0h3"/>
</svg>