<svg width="24" height="24" xmlns="http://www.w3.org/2000/svg">
  <path d="M3.06 18.873V8.967c0-.483.806-1.208 1.45-1.208h14.98c.564 0 1.37.644 1.37 1.208v9.906c0 .564-.806 1.208-1.37 1.208H4.51c-.644 0-1.45-.644-1.45-1.208M24 18.631V9.37c0-2.82-1.691-5.074-4.913-5.074H4.913C1.69 4.296 0 6.55 0 9.37v9.261c0 2.98 1.691 5.074 4.913 5.074h14.094c3.302-.08 4.993-2.094 4.993-5.074" fill="#6aa9ae"/>
  <path d="M5.074 10.094h13.61m-13.61 2.658h13.61M5.075 15.25h13.61m-13.61 2.497h9.423" stroke="#6aa9ae" stroke-width="1.362" stroke-linecap="round"/>
  <path d="M1.047 1.316h2.98m9.664 0h2.98m-9.342 0h2.98m9.664 0h2.98" stroke="#e63323" stroke-width="2.042" stroke-linecap="round"/>
</svg>